<svg xmlns="http://www.w3.org/2000/svg" width="208" height="181" viewBox="0 0 208.23 181.23"><defs><style>.cls-1{fill:#fff;}</style></defs><title>cart</title><g id="Слой_2" data-name="Слой 2"><g id="Слой_1-2" data-name="Слой 1"><path class="cls-1" d="M207,32.46a6,6,0,0,0-4.75-2.33H49.6L42.94,4.49A6,6,0,0,0,37.13,0H6A6,6,0,0,0,6,12H32.49l6.67,25.65h0L62.66,128a6,6,0,0,0,5.81,4.49H178.73a6,6,0,0,0,5.8-4.49L208,37.65A6,6,0,0,0,207,32.46ZM94.3,120.51H73.11l-4.72-18.12H94.3Zm0-30.12h-29L60.56,72.25H94.3Zm0-30.14H57.44L52.72,42.13H94.3Zm46.59,60.26H106.3V102.39h34.59Zm0-30.12H106.3V72.25h34.59Zm0-30.14H106.3V42.13h34.59Zm33.2,60.26h-21.2V102.39H178.8Zm7.83-30.12h-29V72.25h33.75Zm7.84-30.14H152.89V42.13h41.59Z"/><path class="cls-1" d="M84.39,137.39a21.92,21.92,0,1,0,21.91,21.92,21.95,21.95,0,0,0-21.91-21.92Zm0,31.84a9.92,9.92,0,1,1,9.91-9.92,9.93,9.93,0,0,1-9.91,9.92Z"/><path class="cls-1" d="M162.81,137.39a21.92,21.92,0,1,0,21.92,21.92,22,22,0,0,0-21.92-21.92Zm0,31.84a9.92,9.92,0,1,1,9.92-9.92,9.93,9.93,0,0,1-9.92,9.92Z"/></g></g></svg>